<svg xmlns="http://www.w3.org/2000/svg" width="492" height="507" viewBox="0 0 492 507" version="1.1">
	<path d="M 209.093 5.609 C 207.964 7.045, 205.794 10.757, 204.270 13.859 C 201.834 18.821, 201.500 20.644, 201.500 29 L 201.500 38.500 208.212 52.500 C 219.529 76.107, 219.549 78.521, 208.592 99.390 C 204.517 107.151, 200.675 115.412, 200.053 117.750 L 198.923 122 188.211 122.007 C 182.320 122.010, 167.600 122.477, 155.500 123.044 C 82.608 126.457, 32.285 139.308, 11.282 159.872 C 3.609 167.384, 1.017 173.360, 1.031 183.500 C 1.087 222.954, 46.711 248.147, 133.500 256.647 C 155.742 258.826, 218.038 259.131, 242.500 257.182 C 305.757 252.141, 359.480 241.830, 382.250 230.359 C 384.863 229.043, 387 227.826, 387 227.655 C 387 227.483, 382.163 228.617, 376.250 230.176 C 348.741 237.425, 311.510 243.624, 277 246.703 C 252.751 248.867, 183.369 249.170, 161 247.211 C 112.508 242.963, 74.334 234.407, 48.500 221.996 C 14.746 205.780, 5.393 182.955, 25.340 165.476 C 47.182 146.338, 108.408 132.259, 182.502 129.337 L 198.774 128.695 199.450 131.770 C 200.379 136.004, 205.365 143.278, 209.496 146.429 L 212.929 149.048 210.317 144.012 C 208.880 141.243, 207.493 136.782, 207.235 134.099 L 206.767 129.220 211.434 128.849 C 214.001 128.645, 224.142 128.644, 233.970 128.849 L 251.838 129.220 254.877 134.110 C 258.191 139.440, 261.071 140.972, 258.526 136.050 C 255.803 130.784, 256.351 129.999, 262.750 130.005 C 275.556 130.016, 316.392 134.360, 333.863 137.570 C 345.778 139.759, 344.960 138.744, 332.750 136.188 C 313.349 132.128, 286.535 128.095, 266.581 126.237 C 262.226 125.832, 258.508 125.034, 258.319 124.464 C 258.131 123.895, 260.421 119.575, 263.409 114.866 C 273.390 99.134, 273.392 91.740, 263.419 76.506 C 259.056 69.841, 257.675 64.291, 258.816 58.014 C 259.907 52.008, 258.625 52.332, 255.771 58.784 C 252.517 66.141, 253.094 71.436, 258.385 82.753 C 264.488 95.810, 264.460 98.197, 258.053 111.347 C 255.332 116.931, 252.850 122.344, 252.536 123.375 C 252.066 124.924, 251.316 125.147, 248.233 124.658 C 246.180 124.333, 236.512 123.757, 226.750 123.378 C 210.774 122.759, 209 122.516, 209 120.941 C 209 119.978, 212.220 114.310, 216.155 108.345 C 227.524 91.112, 228.998 87.368, 228.999 75.725 C 229 63.595, 227.180 57.970, 219.608 46.697 C 216.579 42.189, 213.111 36.257, 211.901 33.516 C 209.050 27.062, 208.391 17.265, 210.269 9.250 C 211.074 5.813, 211.600 3, 211.439 3 C 211.277 3, 210.222 4.174, 209.093 5.609 M 168.666 42.948 C 162.744 49.503, 162.587 53.986, 167.976 62.654 C 173.071 70.850, 173.007 73.450, 167.461 83.625 C 160.394 96.588, 160.933 102.638, 169.638 108.089 L 172.776 110.055 170.840 106.142 C 169.624 103.684, 169.138 101.299, 169.532 99.727 C 169.878 98.351, 173.344 93.462, 177.235 88.863 C 184.985 79.703, 187 75.910, 187 70.482 C 187 65.362, 184.919 61.994, 178.110 56.095 C 171.844 50.667, 170.969 48.744, 172.164 43.028 C 172.563 41.119, 172.752 39.419, 172.585 39.252 C 172.418 39.084, 170.654 40.748, 168.666 42.948 M 432.950 193.966 C 418.923 201.383, 410.016 223.768, 400.511 275.500 C 390.533 329.811, 379.002 364.302, 362.593 388.923 C 341.288 420.892, 310.469 439.650, 264 448.932 C 240.416 453.643, 232.109 454.451, 207 454.476 C 181.271 454.502, 171.309 453.349, 150.404 447.929 C 69.457 426.941, 17.596 359.316, 4.519 257.699 C 3.683 251.208, 2.993 244.233, 2.985 242.199 C 2.976 240.164, 2.521 237.825, 1.974 237 C 0.665 235.027, 1.637 260.564, 3.612 280 C 10.860 351.345, 39.858 404.191, 89.862 437.185 C 112.340 452.016, 138.243 461.902, 170 467.771 C 183.386 470.244, 186.537 470.451, 211 470.451 C 239.404 470.453, 250.357 469.381, 272.683 464.416 C 327.876 452.143, 364.864 423.134, 388.603 373.500 C 398.935 351.897, 405.380 328.740, 413.929 282.500 C 421.983 238.942, 424.478 228.940, 430.035 217.930 C 433.105 211.850, 438.550 206.402, 442.566 205.394 C 449.940 203.543, 462.605 209.709, 472.291 219.865 C 484.888 233.074, 487.919 249.458, 481.375 268.975 C 475.330 287.009, 460.720 305.730, 442 319.431 C 433.507 325.648, 433.299 326.012, 440.500 322.053 C 460.609 310.999, 480.203 289.721, 487.388 271.135 C 489.744 265.041, 492 253.771, 492 248.095 C 492 240.983, 488.479 228.549, 484.400 221.255 C 477.856 209.552, 462.993 196.608, 452.461 193.438 C 445.812 191.437, 437.296 191.667, 432.950 193.966 M 460.821 219.250 C 465.741 223.147, 469.454 227.915, 472.308 234 C 475.301 240.379, 475.221 258.413, 472.156 268.434 C 469.533 277.012, 470.043 278.172, 472.985 270.319 C 476.991 259.624, 478.255 252.954, 477.779 245.025 C 477.095 233.627, 472.153 225.546, 461.346 218.157 C 456.539 214.870, 456.196 215.586, 460.821 219.250 M 149.152 324.886 C 147.175 326.138, 148.167 329.500, 150.514 329.500 C 151.947 329.500, 152.500 328.828, 152.500 327.083 C 152.500 324.416, 151.220 323.577, 149.152 324.886 M 127 338 C 127 350.333, 127.103 351, 129 351 C 130.763 351, 131 350.333, 131 345.378 C 131 338.864, 131.965 339.070, 136.720 346.596 C 138.921 350.079, 140.081 350.997, 142.290 350.998 L 145.080 351 140.540 344.505 C 138.043 340.932, 136 337.530, 136 336.945 C 136 336.360, 137.787 333.545, 139.970 330.690 C 143.766 325.728, 143.843 325.485, 141.726 325.148 C 140.130 324.895, 138.522 325.944, 135.978 328.898 C 134.035 331.154, 132.120 333, 131.723 333 C 131.325 333, 131 331.200, 131 329 C 131 325.667, 130.667 325, 129 325 C 127.103 325, 127 325.667, 127 338 M 158 328.500 C 158 330.425, 157.550 332, 157 332 C 156.450 332, 156 332.900, 156 334 C 156 335.100, 156.450 336, 157 336 C 157.578 336, 158 339.167, 158 343.500 C 158 350.833, 158.056 351, 160.500 351 C 162.944 351, 163 350.833, 163 343.500 C 163 337.500, 163.300 336, 164.500 336 C 165.325 336, 166 335.311, 166 334.469 C 166 333.626, 165.325 332.678, 164.500 332.362 C 163.574 332.006, 163 330.487, 163 328.393 C 163 325.440, 162.675 325, 160.500 325 C 158.310 325, 158 325.433, 158 328.500 M 192 338.113 L 192 351.227 195.250 350.749 C 197.037 350.487, 199.492 350.724, 200.705 351.276 C 205.559 353.486, 212 347.902, 212 341.484 C 212 334.243, 205.061 329.756, 198.934 333.035 C 197.154 333.988, 197 333.709, 197 329.535 C 197 325.364, 196.799 325, 194.500 325 L 192 325 192 338.113 M 222.190 327.026 C 215.487 331.113, 214.171 341.438, 219.628 347.134 C 223.257 350.921, 228.778 352.622, 232.845 351.204 C 235.226 350.374, 236.131 350.453, 237.061 351.573 C 238.242 352.997, 243 353.602, 243 352.329 C 243 351.960, 242.270 350.851, 241.377 349.864 C 239.880 348.210, 239.880 347.757, 241.377 344.015 C 243.426 338.895, 243.417 336.681, 241.330 332.283 C 238.056 325.384, 228.974 322.889, 222.190 327.026 M 309 328.941 C 309 332.856, 307.713 334.962, 306.510 333.016 C 305.682 331.676, 300.400 331.716, 297.850 333.080 C 295.091 334.557, 292.738 340.529, 293.517 344.077 C 294.433 348.249, 299.653 352.354, 302.925 351.475 C 304.341 351.094, 307.188 350.822, 309.250 350.869 L 313 350.954 313 337.977 C 313 325.667, 312.897 325, 311 325 C 309.338 325, 309 325.667, 309 328.941 M 223.455 331.455 C 220.106 334.804, 219.999 341.735, 223.250 344.711 C 226.106 347.325, 229.515 348.371, 231.521 347.248 C 232.894 346.480, 232.828 346.051, 230.969 343.687 L 228.855 341 231.844 341 C 233.488 341, 235.010 341.530, 235.226 342.177 C 236.060 344.679, 238 341.685, 238 337.896 C 238 329.875, 229.014 325.895, 223.455 331.455 M 148.667 332.667 C 148.300 333.033, 148 337.308, 148 342.167 C 148 350.922, 148.022 351, 150.500 351 C 152.991 351, 153 350.967, 153 341.500 C 153 332.955, 152.816 332, 151.167 332 C 150.158 332, 149.033 332.300, 148.667 332.667 M 170.923 334.923 C 166.940 338.906, 166.931 343.772, 170.898 348.211 C 178.518 356.740, 191.846 347.339, 186.578 337.151 C 183.441 331.085, 175.843 330.004, 170.923 334.923 M 250.201 334.028 C 247.482 336.561, 246.586 339.981, 247.444 344.554 C 248.259 348.896, 253.129 352.411, 257 351.450 C 258.375 351.109, 260.962 350.868, 262.750 350.914 L 266 350.999 266 341.499 C 266 332.667, 265.860 332, 264 332 C 262.900 332, 262 332.466, 262 333.035 C 262 333.749, 261.399 333.749, 260.066 333.035 C 256.983 331.385, 252.559 331.830, 250.201 334.028 M 272 341.500 C 272 350.333, 272.140 351, 274 351 C 275.717 351, 276.002 350.328, 276.015 346.250 C 276.034 340.045, 277.841 336.500, 280.984 336.500 C 283.794 336.500, 284.745 338.869, 284.900 346.250 C 284.985 350.300, 285.295 351, 287 351 C 288.817 351, 289 350.333, 289 343.723 C 289 334.790, 287.453 332, 282.502 332 C 280.641 332, 278.816 332.489, 278.446 333.087 C 277.962 333.870, 277.470 333.870, 276.687 333.087 C 276.089 332.489, 274.790 332, 273.800 332 C 272.193 332, 272 333.019, 272 341.500 M 173.443 338.447 C 172.027 340.608, 171.955 341.478, 172.989 343.973 C 174.501 347.624, 177.356 348.652, 180.415 346.647 C 185.274 343.464, 183.907 336.739, 178.289 336.191 C 175.803 335.949, 174.762 336.433, 173.443 338.447 M 198.200 337.200 C 197.540 337.860, 197 339.875, 197 341.677 C 197 344.103, 197.676 345.397, 199.601 346.658 C 202.603 348.625, 204.635 347.825, 206.941 343.766 C 208.219 341.516, 208.188 340.937, 206.667 338.615 C 204.809 335.780, 200.363 335.037, 198.200 337.200 M 252.413 338.493 C 248.868 343.903, 254.207 350.060, 259.459 346.619 C 262.250 344.790, 263.015 339.415, 260.800 337.200 C 258.684 335.084, 254.193 335.776, 252.413 338.493 M 299.200 337.200 C 297.142 339.258, 297.744 344.708, 300.223 346.443 C 303.160 348.501, 304.593 348.407, 307 346 C 309.496 343.504, 309.571 339.827, 307.171 337.655 C 305.032 335.719, 300.916 335.484, 299.200 337.200 M 207.178 365.500 C 207.144 369.541, 207.394 370.842, 207.944 369.485 C 208.394 368.377, 208.417 365.677, 207.996 363.485 C 207.276 359.739, 207.227 359.860, 207.178 365.500 M 232.500 367 C 232.500 368.650, 232.838 370, 233.250 370 C 233.662 370, 234 368.650, 234 367 C 234 365.350, 233.662 364, 233.250 364 C 232.838 364, 232.500 365.350, 232.500 367 M 241.079 367.583 C 241.127 368.748, 241.364 368.985, 241.683 368.188 C 241.972 367.466, 241.936 366.603, 241.604 366.271 C 241.272 365.939, 241.036 366.529, 241.079 367.583 M 32.500 446.563 C 52.770 465.677, 82.166 482.719, 111.500 492.363 C 143.543 502.897, 173.157 506.611, 217.981 505.716 C 268.013 504.717, 317.274 497.226, 388.287 479.817 C 401.920 476.475, 412.889 473.556, 412.663 473.330 C 412.437 473.104, 387.108 476.067, 356.376 479.915 C 261.876 491.747, 225.330 494.776, 191.204 493.603 C 136.664 491.729, 97.348 479.573, 34 444.999 L 26.500 440.906 32.500 446.563" stroke="none" fill="#000000" fill-rule="evenodd"/>
</svg>